<mxfile host="app.diagrams.net" modified="2023-06-29T00:13:52.382Z" agent="Mozilla/5.0 (Windows NT 10.0; Win64; x64) AppleWebKit/537.36 (KHTML, like Gecko) Chrome/114.0.0.0 Safari/537.36" etag="pyz-G_1DmXniN2VRc4X3" version="21.5.1" type="github">
  <diagram id="R2lEEEUBdFMjLlhIrx00" name="Page-1">
    <mxGraphModel dx="1970" dy="484" grid="1" gridSize="10" guides="1" tooltips="1" connect="1" arrows="1" fold="1" page="1" pageScale="1" pageWidth="850" pageHeight="1100" math="0" shadow="0" extFonts="Permanent Marker^https://fonts.googleapis.com/css?family=Permanent+Marker">
      <root>
        <mxCell id="0" />
        <mxCell id="1" parent="0" />
        <mxCell id="C-vyLk0tnHw3VtMMgP7b-23" value="restaurante" style="shape=table;startSize=30;container=1;collapsible=1;childLayout=tableLayout;fixedRows=1;rowLines=0;fontStyle=1;align=center;resizeLast=1;" parent="1" vertex="1">
          <mxGeometry x="320" y="90" width="250" height="150" as="geometry" />
        </mxCell>
        <mxCell id="C-vyLk0tnHw3VtMMgP7b-24" value="" style="shape=partialRectangle;collapsible=0;dropTarget=0;pointerEvents=0;fillColor=none;points=[[0,0.5],[1,0.5]];portConstraint=eastwest;top=0;left=0;right=0;bottom=1;" parent="C-vyLk0tnHw3VtMMgP7b-23" vertex="1">
          <mxGeometry y="30" width="250" height="30" as="geometry" />
        </mxCell>
        <mxCell id="C-vyLk0tnHw3VtMMgP7b-25" value="PK" style="shape=partialRectangle;overflow=hidden;connectable=0;fillColor=none;top=0;left=0;bottom=0;right=0;fontStyle=1;" parent="C-vyLk0tnHw3VtMMgP7b-24" vertex="1">
          <mxGeometry width="30" height="30" as="geometry">
            <mxRectangle width="30" height="30" as="alternateBounds" />
          </mxGeometry>
        </mxCell>
        <mxCell id="C-vyLk0tnHw3VtMMgP7b-26" value="nombre de restaurante" style="shape=partialRectangle;overflow=hidden;connectable=0;fillColor=none;top=0;left=0;bottom=0;right=0;align=left;spacingLeft=6;fontStyle=5;" parent="C-vyLk0tnHw3VtMMgP7b-24" vertex="1">
          <mxGeometry x="30" width="220" height="30" as="geometry">
            <mxRectangle width="220" height="30" as="alternateBounds" />
          </mxGeometry>
        </mxCell>
        <mxCell id="C-vyLk0tnHw3VtMMgP7b-27" value="" style="shape=partialRectangle;collapsible=0;dropTarget=0;pointerEvents=0;fillColor=none;points=[[0,0.5],[1,0.5]];portConstraint=eastwest;top=0;left=0;right=0;bottom=0;" parent="C-vyLk0tnHw3VtMMgP7b-23" vertex="1">
          <mxGeometry y="60" width="250" height="30" as="geometry" />
        </mxCell>
        <mxCell id="C-vyLk0tnHw3VtMMgP7b-28" value="" style="shape=partialRectangle;overflow=hidden;connectable=0;fillColor=none;top=0;left=0;bottom=0;right=0;" parent="C-vyLk0tnHw3VtMMgP7b-27" vertex="1">
          <mxGeometry width="30" height="30" as="geometry">
            <mxRectangle width="30" height="30" as="alternateBounds" />
          </mxGeometry>
        </mxCell>
        <mxCell id="C-vyLk0tnHw3VtMMgP7b-29" value="n de locales" style="shape=partialRectangle;overflow=hidden;connectable=0;fillColor=none;top=0;left=0;bottom=0;right=0;align=left;spacingLeft=6;" parent="C-vyLk0tnHw3VtMMgP7b-27" vertex="1">
          <mxGeometry x="30" width="220" height="30" as="geometry">
            <mxRectangle width="220" height="30" as="alternateBounds" />
          </mxGeometry>
        </mxCell>
        <mxCell id="2qOxODOBPzTFWC9N3JjX-7" value="" style="shape=partialRectangle;collapsible=0;dropTarget=0;pointerEvents=0;fillColor=none;points=[[0,0.5],[1,0.5]];portConstraint=eastwest;top=0;left=0;right=0;bottom=0;" vertex="1" parent="C-vyLk0tnHw3VtMMgP7b-23">
          <mxGeometry y="90" width="250" height="30" as="geometry" />
        </mxCell>
        <mxCell id="2qOxODOBPzTFWC9N3JjX-8" value="" style="shape=partialRectangle;overflow=hidden;connectable=0;fillColor=none;top=0;left=0;bottom=0;right=0;" vertex="1" parent="2qOxODOBPzTFWC9N3JjX-7">
          <mxGeometry width="30" height="30" as="geometry">
            <mxRectangle width="30" height="30" as="alternateBounds" />
          </mxGeometry>
        </mxCell>
        <mxCell id="2qOxODOBPzTFWC9N3JjX-9" value="" style="shape=partialRectangle;overflow=hidden;connectable=0;fillColor=none;top=0;left=0;bottom=0;right=0;align=left;spacingLeft=6;" vertex="1" parent="2qOxODOBPzTFWC9N3JjX-7">
          <mxGeometry x="30" width="220" height="30" as="geometry">
            <mxRectangle width="220" height="30" as="alternateBounds" />
          </mxGeometry>
        </mxCell>
        <mxCell id="2qOxODOBPzTFWC9N3JjX-10" value="" style="shape=partialRectangle;collapsible=0;dropTarget=0;pointerEvents=0;fillColor=none;points=[[0,0.5],[1,0.5]];portConstraint=eastwest;top=0;left=0;right=0;bottom=0;" vertex="1" parent="C-vyLk0tnHw3VtMMgP7b-23">
          <mxGeometry y="120" width="250" height="30" as="geometry" />
        </mxCell>
        <mxCell id="2qOxODOBPzTFWC9N3JjX-11" value="" style="shape=partialRectangle;overflow=hidden;connectable=0;fillColor=none;top=0;left=0;bottom=0;right=0;" vertex="1" parent="2qOxODOBPzTFWC9N3JjX-10">
          <mxGeometry width="30" height="30" as="geometry">
            <mxRectangle width="30" height="30" as="alternateBounds" />
          </mxGeometry>
        </mxCell>
        <mxCell id="2qOxODOBPzTFWC9N3JjX-12" value="" style="shape=partialRectangle;overflow=hidden;connectable=0;fillColor=none;top=0;left=0;bottom=0;right=0;align=left;spacingLeft=6;" vertex="1" parent="2qOxODOBPzTFWC9N3JjX-10">
          <mxGeometry x="30" width="220" height="30" as="geometry">
            <mxRectangle width="220" height="30" as="alternateBounds" />
          </mxGeometry>
        </mxCell>
        <mxCell id="2qOxODOBPzTFWC9N3JjX-4" value="" style="endArrow=none;html=1;rounded=0;entryX=0.992;entryY=1;entryDx=0;entryDy=0;entryPerimeter=0;" edge="1" parent="1" target="C-vyLk0tnHw3VtMMgP7b-27">
          <mxGeometry width="50" height="50" relative="1" as="geometry">
            <mxPoint x="320" y="180" as="sourcePoint" />
            <mxPoint x="370" y="130" as="targetPoint" />
          </mxGeometry>
        </mxCell>
        <mxCell id="2qOxODOBPzTFWC9N3JjX-6" value="" style="endArrow=none;html=1;rounded=0;" edge="1" parent="1">
          <mxGeometry width="50" height="50" relative="1" as="geometry">
            <mxPoint x="320" y="210" as="sourcePoint" />
            <mxPoint x="570" y="210" as="targetPoint" />
          </mxGeometry>
        </mxCell>
        <mxCell id="2qOxODOBPzTFWC9N3JjX-30" value="local" style="shape=table;startSize=30;container=1;collapsible=1;childLayout=tableLayout;fixedRows=1;rowLines=0;fontStyle=1;align=center;resizeLast=1;" vertex="1" parent="1">
          <mxGeometry x="325.5" y="270" width="250" height="180" as="geometry" />
        </mxCell>
        <mxCell id="2qOxODOBPzTFWC9N3JjX-31" value="" style="shape=partialRectangle;collapsible=0;dropTarget=0;pointerEvents=0;fillColor=none;points=[[0,0.5],[1,0.5]];portConstraint=eastwest;top=0;left=0;right=0;bottom=1;" vertex="1" parent="2qOxODOBPzTFWC9N3JjX-30">
          <mxGeometry y="30" width="250" height="30" as="geometry" />
        </mxCell>
        <mxCell id="2qOxODOBPzTFWC9N3JjX-32" value="PK" style="shape=partialRectangle;overflow=hidden;connectable=0;fillColor=none;top=0;left=0;bottom=0;right=0;fontStyle=1;" vertex="1" parent="2qOxODOBPzTFWC9N3JjX-31">
          <mxGeometry width="24.5" height="30" as="geometry">
            <mxRectangle width="24.5" height="30" as="alternateBounds" />
          </mxGeometry>
        </mxCell>
        <mxCell id="2qOxODOBPzTFWC9N3JjX-33" value="id local" style="shape=partialRectangle;overflow=hidden;connectable=0;fillColor=none;top=0;left=0;bottom=0;right=0;align=left;spacingLeft=6;fontStyle=5;" vertex="1" parent="2qOxODOBPzTFWC9N3JjX-31">
          <mxGeometry x="24.5" width="225.5" height="30" as="geometry">
            <mxRectangle width="225.5" height="30" as="alternateBounds" />
          </mxGeometry>
        </mxCell>
        <mxCell id="2qOxODOBPzTFWC9N3JjX-34" value="" style="shape=partialRectangle;collapsible=0;dropTarget=0;pointerEvents=0;fillColor=none;points=[[0,0.5],[1,0.5]];portConstraint=eastwest;top=0;left=0;right=0;bottom=0;" vertex="1" parent="2qOxODOBPzTFWC9N3JjX-30">
          <mxGeometry y="60" width="250" height="30" as="geometry" />
        </mxCell>
        <mxCell id="2qOxODOBPzTFWC9N3JjX-35" value="" style="shape=partialRectangle;overflow=hidden;connectable=0;fillColor=none;top=0;left=0;bottom=0;right=0;" vertex="1" parent="2qOxODOBPzTFWC9N3JjX-34">
          <mxGeometry width="24.5" height="30" as="geometry">
            <mxRectangle width="24.5" height="30" as="alternateBounds" />
          </mxGeometry>
        </mxCell>
        <mxCell id="2qOxODOBPzTFWC9N3JjX-36" value="" style="shape=partialRectangle;overflow=hidden;connectable=0;fillColor=none;top=0;left=0;bottom=0;right=0;align=left;spacingLeft=6;" vertex="1" parent="2qOxODOBPzTFWC9N3JjX-34">
          <mxGeometry x="24.5" width="225.5" height="30" as="geometry">
            <mxRectangle width="225.5" height="30" as="alternateBounds" />
          </mxGeometry>
        </mxCell>
        <mxCell id="2qOxODOBPzTFWC9N3JjX-37" value="" style="shape=partialRectangle;collapsible=0;dropTarget=0;pointerEvents=0;fillColor=none;points=[[0,0.5],[1,0.5]];portConstraint=eastwest;top=0;left=0;right=0;bottom=0;" vertex="1" parent="2qOxODOBPzTFWC9N3JjX-30">
          <mxGeometry y="90" width="250" height="30" as="geometry" />
        </mxCell>
        <mxCell id="2qOxODOBPzTFWC9N3JjX-38" value="" style="shape=partialRectangle;overflow=hidden;connectable=0;fillColor=none;top=0;left=0;bottom=0;right=0;" vertex="1" parent="2qOxODOBPzTFWC9N3JjX-37">
          <mxGeometry width="24.5" height="30" as="geometry">
            <mxRectangle width="24.5" height="30" as="alternateBounds" />
          </mxGeometry>
        </mxCell>
        <mxCell id="2qOxODOBPzTFWC9N3JjX-39" value="n de mesas" style="shape=partialRectangle;overflow=hidden;connectable=0;fillColor=none;top=0;left=0;bottom=0;right=0;align=left;spacingLeft=6;" vertex="1" parent="2qOxODOBPzTFWC9N3JjX-37">
          <mxGeometry x="24.5" width="225.5" height="30" as="geometry">
            <mxRectangle width="225.5" height="30" as="alternateBounds" />
          </mxGeometry>
        </mxCell>
        <mxCell id="2qOxODOBPzTFWC9N3JjX-40" value="" style="shape=partialRectangle;collapsible=0;dropTarget=0;pointerEvents=0;fillColor=none;points=[[0,0.5],[1,0.5]];portConstraint=eastwest;top=0;left=0;right=0;bottom=0;" vertex="1" parent="2qOxODOBPzTFWC9N3JjX-30">
          <mxGeometry y="120" width="250" height="30" as="geometry" />
        </mxCell>
        <mxCell id="2qOxODOBPzTFWC9N3JjX-41" value="" style="shape=partialRectangle;overflow=hidden;connectable=0;fillColor=none;top=0;left=0;bottom=0;right=0;" vertex="1" parent="2qOxODOBPzTFWC9N3JjX-40">
          <mxGeometry width="24.5" height="30" as="geometry">
            <mxRectangle width="24.5" height="30" as="alternateBounds" />
          </mxGeometry>
        </mxCell>
        <mxCell id="2qOxODOBPzTFWC9N3JjX-42" value="n de empleados" style="shape=partialRectangle;overflow=hidden;connectable=0;fillColor=none;top=0;left=0;bottom=0;right=0;align=left;spacingLeft=6;" vertex="1" parent="2qOxODOBPzTFWC9N3JjX-40">
          <mxGeometry x="24.5" width="225.5" height="30" as="geometry">
            <mxRectangle width="225.5" height="30" as="alternateBounds" />
          </mxGeometry>
        </mxCell>
        <mxCell id="2qOxODOBPzTFWC9N3JjX-43" value="" style="endArrow=none;html=1;rounded=0;entryX=0.992;entryY=1;entryDx=0;entryDy=0;entryPerimeter=0;" edge="1" target="2qOxODOBPzTFWC9N3JjX-34" parent="1">
          <mxGeometry width="50" height="50" relative="1" as="geometry">
            <mxPoint x="324.5" y="360" as="sourcePoint" />
            <mxPoint x="374.5" y="310" as="targetPoint" />
          </mxGeometry>
        </mxCell>
        <mxCell id="2qOxODOBPzTFWC9N3JjX-44" value="" style="endArrow=none;html=1;rounded=0;" edge="1" parent="1">
          <mxGeometry width="50" height="50" relative="1" as="geometry">
            <mxPoint x="324.5" y="390" as="sourcePoint" />
            <mxPoint x="574.5" y="390" as="targetPoint" />
          </mxGeometry>
        </mxCell>
        <mxCell id="2qOxODOBPzTFWC9N3JjX-51" value="fk" style="text;html=1;strokeColor=none;fillColor=none;align=center;verticalAlign=middle;whiteSpace=wrap;rounded=0;" vertex="1" parent="1">
          <mxGeometry x="325.5" y="330" width="29" height="30" as="geometry" />
        </mxCell>
        <mxCell id="2qOxODOBPzTFWC9N3JjX-52" value="nombre de restaurante" style="text;html=1;strokeColor=none;fillColor=none;align=center;verticalAlign=middle;whiteSpace=wrap;rounded=0;" vertex="1" parent="1">
          <mxGeometry x="314.5" y="330" width="220" height="30" as="geometry" />
        </mxCell>
        <mxCell id="2qOxODOBPzTFWC9N3JjX-54" value="" style="curved=1;endArrow=classic;html=1;rounded=0;exitX=0;exitY=0.5;exitDx=0;exitDy=0;" edge="1" parent="1" source="C-vyLk0tnHw3VtMMgP7b-24">
          <mxGeometry width="50" height="50" relative="1" as="geometry">
            <mxPoint x="240" y="140" as="sourcePoint" />
            <mxPoint x="320" y="340" as="targetPoint" />
            <Array as="points">
              <mxPoint x="290" y="140" />
              <mxPoint x="260" y="150" />
              <mxPoint x="230" y="190" />
              <mxPoint x="220" y="290" />
            </Array>
          </mxGeometry>
        </mxCell>
        <mxCell id="2qOxODOBPzTFWC9N3JjX-55" value="empleados" style="shape=table;startSize=30;container=1;collapsible=1;childLayout=tableLayout;fixedRows=1;rowLines=0;fontStyle=1;align=center;resizeLast=1;" vertex="1" parent="1">
          <mxGeometry x="61" y="510" width="250" height="210" as="geometry" />
        </mxCell>
        <mxCell id="2qOxODOBPzTFWC9N3JjX-56" value="" style="shape=partialRectangle;collapsible=0;dropTarget=0;pointerEvents=0;fillColor=none;points=[[0,0.5],[1,0.5]];portConstraint=eastwest;top=0;left=0;right=0;bottom=1;" vertex="1" parent="2qOxODOBPzTFWC9N3JjX-55">
          <mxGeometry y="30" width="250" height="30" as="geometry" />
        </mxCell>
        <mxCell id="2qOxODOBPzTFWC9N3JjX-57" value="PK" style="shape=partialRectangle;overflow=hidden;connectable=0;fillColor=none;top=0;left=0;bottom=0;right=0;fontStyle=1;" vertex="1" parent="2qOxODOBPzTFWC9N3JjX-56">
          <mxGeometry width="30" height="30" as="geometry">
            <mxRectangle width="30" height="30" as="alternateBounds" />
          </mxGeometry>
        </mxCell>
        <mxCell id="2qOxODOBPzTFWC9N3JjX-58" value="id empleado" style="shape=partialRectangle;overflow=hidden;connectable=0;fillColor=none;top=0;left=0;bottom=0;right=0;align=left;spacingLeft=6;fontStyle=5;" vertex="1" parent="2qOxODOBPzTFWC9N3JjX-56">
          <mxGeometry x="30" width="220" height="30" as="geometry">
            <mxRectangle width="220" height="30" as="alternateBounds" />
          </mxGeometry>
        </mxCell>
        <mxCell id="2qOxODOBPzTFWC9N3JjX-59" value="" style="shape=partialRectangle;collapsible=0;dropTarget=0;pointerEvents=0;fillColor=none;points=[[0,0.5],[1,0.5]];portConstraint=eastwest;top=0;left=0;right=0;bottom=0;" vertex="1" parent="2qOxODOBPzTFWC9N3JjX-55">
          <mxGeometry y="60" width="250" height="30" as="geometry" />
        </mxCell>
        <mxCell id="2qOxODOBPzTFWC9N3JjX-60" value="" style="shape=partialRectangle;overflow=hidden;connectable=0;fillColor=none;top=0;left=0;bottom=0;right=0;" vertex="1" parent="2qOxODOBPzTFWC9N3JjX-59">
          <mxGeometry width="30" height="30" as="geometry">
            <mxRectangle width="30" height="30" as="alternateBounds" />
          </mxGeometry>
        </mxCell>
        <mxCell id="2qOxODOBPzTFWC9N3JjX-61" value="" style="shape=partialRectangle;overflow=hidden;connectable=0;fillColor=none;top=0;left=0;bottom=0;right=0;align=left;spacingLeft=6;" vertex="1" parent="2qOxODOBPzTFWC9N3JjX-59">
          <mxGeometry x="30" width="220" height="30" as="geometry">
            <mxRectangle width="220" height="30" as="alternateBounds" />
          </mxGeometry>
        </mxCell>
        <mxCell id="2qOxODOBPzTFWC9N3JjX-62" value="" style="shape=partialRectangle;collapsible=0;dropTarget=0;pointerEvents=0;fillColor=none;points=[[0,0.5],[1,0.5]];portConstraint=eastwest;top=0;left=0;right=0;bottom=0;" vertex="1" parent="2qOxODOBPzTFWC9N3JjX-55">
          <mxGeometry y="90" width="250" height="30" as="geometry" />
        </mxCell>
        <mxCell id="2qOxODOBPzTFWC9N3JjX-63" value="" style="shape=partialRectangle;overflow=hidden;connectable=0;fillColor=none;top=0;left=0;bottom=0;right=0;" vertex="1" parent="2qOxODOBPzTFWC9N3JjX-62">
          <mxGeometry width="30" height="30" as="geometry">
            <mxRectangle width="30" height="30" as="alternateBounds" />
          </mxGeometry>
        </mxCell>
        <mxCell id="2qOxODOBPzTFWC9N3JjX-64" value="sueldo" style="shape=partialRectangle;overflow=hidden;connectable=0;fillColor=none;top=0;left=0;bottom=0;right=0;align=left;spacingLeft=6;" vertex="1" parent="2qOxODOBPzTFWC9N3JjX-62">
          <mxGeometry x="30" width="220" height="30" as="geometry">
            <mxRectangle width="220" height="30" as="alternateBounds" />
          </mxGeometry>
        </mxCell>
        <mxCell id="2qOxODOBPzTFWC9N3JjX-65" value="" style="shape=partialRectangle;collapsible=0;dropTarget=0;pointerEvents=0;fillColor=none;points=[[0,0.5],[1,0.5]];portConstraint=eastwest;top=0;left=0;right=0;bottom=0;" vertex="1" parent="2qOxODOBPzTFWC9N3JjX-55">
          <mxGeometry y="120" width="250" height="30" as="geometry" />
        </mxCell>
        <mxCell id="2qOxODOBPzTFWC9N3JjX-66" value="" style="shape=partialRectangle;overflow=hidden;connectable=0;fillColor=none;top=0;left=0;bottom=0;right=0;" vertex="1" parent="2qOxODOBPzTFWC9N3JjX-65">
          <mxGeometry width="30" height="30" as="geometry">
            <mxRectangle width="30" height="30" as="alternateBounds" />
          </mxGeometry>
        </mxCell>
        <mxCell id="2qOxODOBPzTFWC9N3JjX-67" value="turno" style="shape=partialRectangle;overflow=hidden;connectable=0;fillColor=none;top=0;left=0;bottom=0;right=0;align=left;spacingLeft=6;" vertex="1" parent="2qOxODOBPzTFWC9N3JjX-65">
          <mxGeometry x="30" width="220" height="30" as="geometry">
            <mxRectangle width="220" height="30" as="alternateBounds" />
          </mxGeometry>
        </mxCell>
        <mxCell id="2qOxODOBPzTFWC9N3JjX-101" value="" style="endArrow=none;html=1;rounded=0;entryX=0.988;entryY=0.967;entryDx=0;entryDy=0;entryPerimeter=0;" edge="1" parent="2qOxODOBPzTFWC9N3JjX-55" target="2qOxODOBPzTFWC9N3JjX-65">
          <mxGeometry width="50" height="50" relative="1" as="geometry">
            <mxPoint x="-1" y="150" as="sourcePoint" />
            <mxPoint x="79" y="100" as="targetPoint" />
          </mxGeometry>
        </mxCell>
        <mxCell id="2qOxODOBPzTFWC9N3JjX-103" value="" style="shape=partialRectangle;collapsible=0;dropTarget=0;pointerEvents=0;fillColor=none;points=[[0,0.5],[1,0.5]];portConstraint=eastwest;top=0;left=0;right=0;bottom=0;" vertex="1" parent="2qOxODOBPzTFWC9N3JjX-55">
          <mxGeometry y="150" width="250" height="30" as="geometry" />
        </mxCell>
        <mxCell id="2qOxODOBPzTFWC9N3JjX-104" value="" style="shape=partialRectangle;overflow=hidden;connectable=0;fillColor=none;top=0;left=0;bottom=0;right=0;" vertex="1" parent="2qOxODOBPzTFWC9N3JjX-103">
          <mxGeometry width="30" height="30" as="geometry">
            <mxRectangle width="30" height="30" as="alternateBounds" />
          </mxGeometry>
        </mxCell>
        <mxCell id="2qOxODOBPzTFWC9N3JjX-105" value="nombre" style="shape=partialRectangle;overflow=hidden;connectable=0;fillColor=none;top=0;left=0;bottom=0;right=0;align=left;spacingLeft=6;" vertex="1" parent="2qOxODOBPzTFWC9N3JjX-103">
          <mxGeometry x="30" width="220" height="30" as="geometry">
            <mxRectangle width="220" height="30" as="alternateBounds" />
          </mxGeometry>
        </mxCell>
        <mxCell id="2qOxODOBPzTFWC9N3JjX-106" value="" style="shape=partialRectangle;collapsible=0;dropTarget=0;pointerEvents=0;fillColor=none;points=[[0,0.5],[1,0.5]];portConstraint=eastwest;top=0;left=0;right=0;bottom=0;" vertex="1" parent="2qOxODOBPzTFWC9N3JjX-55">
          <mxGeometry y="180" width="250" height="30" as="geometry" />
        </mxCell>
        <mxCell id="2qOxODOBPzTFWC9N3JjX-107" value="" style="shape=partialRectangle;overflow=hidden;connectable=0;fillColor=none;top=0;left=0;bottom=0;right=0;" vertex="1" parent="2qOxODOBPzTFWC9N3JjX-106">
          <mxGeometry width="30" height="30" as="geometry">
            <mxRectangle width="30" height="30" as="alternateBounds" />
          </mxGeometry>
        </mxCell>
        <mxCell id="2qOxODOBPzTFWC9N3JjX-108" value="" style="shape=partialRectangle;overflow=hidden;connectable=0;fillColor=none;top=0;left=0;bottom=0;right=0;align=left;spacingLeft=6;" vertex="1" parent="2qOxODOBPzTFWC9N3JjX-106">
          <mxGeometry x="30" width="220" height="30" as="geometry">
            <mxRectangle width="220" height="30" as="alternateBounds" />
          </mxGeometry>
        </mxCell>
        <mxCell id="2qOxODOBPzTFWC9N3JjX-68" value="" style="endArrow=none;html=1;rounded=0;entryX=0.992;entryY=1;entryDx=0;entryDy=0;entryPerimeter=0;" edge="1" target="2qOxODOBPzTFWC9N3JjX-59" parent="1">
          <mxGeometry width="50" height="50" relative="1" as="geometry">
            <mxPoint x="60" y="600" as="sourcePoint" />
            <mxPoint x="110" y="550" as="targetPoint" />
          </mxGeometry>
        </mxCell>
        <mxCell id="2qOxODOBPzTFWC9N3JjX-69" value="" style="endArrow=none;html=1;rounded=0;" edge="1" parent="1">
          <mxGeometry width="50" height="50" relative="1" as="geometry">
            <mxPoint x="60" y="630" as="sourcePoint" />
            <mxPoint x="310" y="630" as="targetPoint" />
          </mxGeometry>
        </mxCell>
        <mxCell id="2qOxODOBPzTFWC9N3JjX-70" value="fk" style="text;html=1;strokeColor=none;fillColor=none;align=center;verticalAlign=middle;whiteSpace=wrap;rounded=0;" vertex="1" parent="1">
          <mxGeometry x="61" y="570" width="29" height="30" as="geometry" />
        </mxCell>
        <mxCell id="2qOxODOBPzTFWC9N3JjX-71" value="id local" style="text;html=1;strokeColor=none;fillColor=none;align=center;verticalAlign=middle;whiteSpace=wrap;rounded=0;" vertex="1" parent="1">
          <mxGeometry x="10" y="570" width="220" height="30" as="geometry" />
        </mxCell>
        <mxCell id="2qOxODOBPzTFWC9N3JjX-72" value="menu" style="shape=table;startSize=30;container=1;collapsible=1;childLayout=tableLayout;fixedRows=1;rowLines=0;fontStyle=1;align=center;resizeLast=1;" vertex="1" parent="1">
          <mxGeometry x="576.5" y="510" width="250" height="150" as="geometry" />
        </mxCell>
        <mxCell id="2qOxODOBPzTFWC9N3JjX-73" value="" style="shape=partialRectangle;collapsible=0;dropTarget=0;pointerEvents=0;fillColor=none;points=[[0,0.5],[1,0.5]];portConstraint=eastwest;top=0;left=0;right=0;bottom=1;" vertex="1" parent="2qOxODOBPzTFWC9N3JjX-72">
          <mxGeometry y="30" width="250" height="30" as="geometry" />
        </mxCell>
        <mxCell id="2qOxODOBPzTFWC9N3JjX-74" value="PK" style="shape=partialRectangle;overflow=hidden;connectable=0;fillColor=none;top=0;left=0;bottom=0;right=0;fontStyle=1;" vertex="1" parent="2qOxODOBPzTFWC9N3JjX-73">
          <mxGeometry width="30" height="30" as="geometry">
            <mxRectangle width="30" height="30" as="alternateBounds" />
          </mxGeometry>
        </mxCell>
        <mxCell id="2qOxODOBPzTFWC9N3JjX-75" value="id item" style="shape=partialRectangle;overflow=hidden;connectable=0;fillColor=none;top=0;left=0;bottom=0;right=0;align=left;spacingLeft=6;fontStyle=5;" vertex="1" parent="2qOxODOBPzTFWC9N3JjX-73">
          <mxGeometry x="30" width="220" height="30" as="geometry">
            <mxRectangle width="220" height="30" as="alternateBounds" />
          </mxGeometry>
        </mxCell>
        <mxCell id="2qOxODOBPzTFWC9N3JjX-76" value="" style="shape=partialRectangle;collapsible=0;dropTarget=0;pointerEvents=0;fillColor=none;points=[[0,0.5],[1,0.5]];portConstraint=eastwest;top=0;left=0;right=0;bottom=0;" vertex="1" parent="2qOxODOBPzTFWC9N3JjX-72">
          <mxGeometry y="60" width="250" height="30" as="geometry" />
        </mxCell>
        <mxCell id="2qOxODOBPzTFWC9N3JjX-77" value="" style="shape=partialRectangle;overflow=hidden;connectable=0;fillColor=none;top=0;left=0;bottom=0;right=0;" vertex="1" parent="2qOxODOBPzTFWC9N3JjX-76">
          <mxGeometry width="30" height="30" as="geometry">
            <mxRectangle width="30" height="30" as="alternateBounds" />
          </mxGeometry>
        </mxCell>
        <mxCell id="2qOxODOBPzTFWC9N3JjX-78" value="id local" style="shape=partialRectangle;overflow=hidden;connectable=0;fillColor=none;top=0;left=0;bottom=0;right=0;align=left;spacingLeft=6;" vertex="1" parent="2qOxODOBPzTFWC9N3JjX-76">
          <mxGeometry x="30" width="220" height="30" as="geometry">
            <mxRectangle width="220" height="30" as="alternateBounds" />
          </mxGeometry>
        </mxCell>
        <mxCell id="2qOxODOBPzTFWC9N3JjX-79" value="" style="shape=partialRectangle;collapsible=0;dropTarget=0;pointerEvents=0;fillColor=none;points=[[0,0.5],[1,0.5]];portConstraint=eastwest;top=0;left=0;right=0;bottom=0;" vertex="1" parent="2qOxODOBPzTFWC9N3JjX-72">
          <mxGeometry y="90" width="250" height="30" as="geometry" />
        </mxCell>
        <mxCell id="2qOxODOBPzTFWC9N3JjX-80" value="" style="shape=partialRectangle;overflow=hidden;connectable=0;fillColor=none;top=0;left=0;bottom=0;right=0;" vertex="1" parent="2qOxODOBPzTFWC9N3JjX-79">
          <mxGeometry width="30" height="30" as="geometry">
            <mxRectangle width="30" height="30" as="alternateBounds" />
          </mxGeometry>
        </mxCell>
        <mxCell id="2qOxODOBPzTFWC9N3JjX-81" value="nombre " style="shape=partialRectangle;overflow=hidden;connectable=0;fillColor=none;top=0;left=0;bottom=0;right=0;align=left;spacingLeft=6;" vertex="1" parent="2qOxODOBPzTFWC9N3JjX-79">
          <mxGeometry x="30" width="220" height="30" as="geometry">
            <mxRectangle width="220" height="30" as="alternateBounds" />
          </mxGeometry>
        </mxCell>
        <mxCell id="2qOxODOBPzTFWC9N3JjX-82" value="" style="shape=partialRectangle;collapsible=0;dropTarget=0;pointerEvents=0;fillColor=none;points=[[0,0.5],[1,0.5]];portConstraint=eastwest;top=0;left=0;right=0;bottom=0;" vertex="1" parent="2qOxODOBPzTFWC9N3JjX-72">
          <mxGeometry y="120" width="250" height="30" as="geometry" />
        </mxCell>
        <mxCell id="2qOxODOBPzTFWC9N3JjX-83" value="" style="shape=partialRectangle;overflow=hidden;connectable=0;fillColor=none;top=0;left=0;bottom=0;right=0;" vertex="1" parent="2qOxODOBPzTFWC9N3JjX-82">
          <mxGeometry width="30" height="30" as="geometry">
            <mxRectangle width="30" height="30" as="alternateBounds" />
          </mxGeometry>
        </mxCell>
        <mxCell id="2qOxODOBPzTFWC9N3JjX-84" value="precios" style="shape=partialRectangle;overflow=hidden;connectable=0;fillColor=none;top=0;left=0;bottom=0;right=0;align=left;spacingLeft=6;" vertex="1" parent="2qOxODOBPzTFWC9N3JjX-82">
          <mxGeometry x="30" width="220" height="30" as="geometry">
            <mxRectangle width="220" height="30" as="alternateBounds" />
          </mxGeometry>
        </mxCell>
        <mxCell id="2qOxODOBPzTFWC9N3JjX-85" value="" style="endArrow=none;html=1;rounded=0;entryX=0.992;entryY=1;entryDx=0;entryDy=0;entryPerimeter=0;" edge="1" target="2qOxODOBPzTFWC9N3JjX-76" parent="1">
          <mxGeometry width="50" height="50" relative="1" as="geometry">
            <mxPoint x="575.5" y="600" as="sourcePoint" />
            <mxPoint x="625.5" y="550" as="targetPoint" />
          </mxGeometry>
        </mxCell>
        <mxCell id="2qOxODOBPzTFWC9N3JjX-86" value="" style="endArrow=none;html=1;rounded=0;" edge="1" parent="1">
          <mxGeometry width="50" height="50" relative="1" as="geometry">
            <mxPoint x="575.5" y="630" as="sourcePoint" />
            <mxPoint x="825.5" y="630" as="targetPoint" />
          </mxGeometry>
        </mxCell>
        <mxCell id="2qOxODOBPzTFWC9N3JjX-87" value="fk" style="text;html=1;strokeColor=none;fillColor=none;align=center;verticalAlign=middle;whiteSpace=wrap;rounded=0;" vertex="1" parent="1">
          <mxGeometry x="576.5" y="570" width="29" height="30" as="geometry" />
        </mxCell>
        <mxCell id="2qOxODOBPzTFWC9N3JjX-91" value="" style="endArrow=none;html=1;rounded=0;" edge="1" parent="1">
          <mxGeometry width="50" height="50" relative="1" as="geometry">
            <mxPoint x="350" y="450" as="sourcePoint" />
            <mxPoint x="350" y="420" as="targetPoint" />
          </mxGeometry>
        </mxCell>
        <mxCell id="2qOxODOBPzTFWC9N3JjX-93" value="" style="endArrow=none;html=1;rounded=0;" edge="1" parent="1">
          <mxGeometry width="50" height="50" relative="1" as="geometry">
            <mxPoint x="570" y="422" as="sourcePoint" />
            <mxPoint x="330" y="420" as="targetPoint" />
          </mxGeometry>
        </mxCell>
        <mxCell id="2qOxODOBPzTFWC9N3JjX-96" value="" style="curved=1;endArrow=classic;html=1;rounded=0;" edge="1" parent="1">
          <mxGeometry width="50" height="50" relative="1" as="geometry">
            <mxPoint x="580" y="310" as="sourcePoint" />
            <mxPoint x="440" y="480" as="targetPoint" />
            <Array as="points">
              <mxPoint x="630" y="310" />
              <mxPoint x="650" y="390" />
              <mxPoint x="620" y="480" />
            </Array>
          </mxGeometry>
        </mxCell>
        <mxCell id="2qOxODOBPzTFWC9N3JjX-98" value="" style="endArrow=classic;html=1;rounded=0;entryX=1;entryY=0.5;entryDx=0;entryDy=0;" edge="1" parent="1" target="2qOxODOBPzTFWC9N3JjX-59">
          <mxGeometry width="50" height="50" relative="1" as="geometry">
            <mxPoint x="440" y="480" as="sourcePoint" />
            <mxPoint x="490" y="430" as="targetPoint" />
          </mxGeometry>
        </mxCell>
        <mxCell id="2qOxODOBPzTFWC9N3JjX-99" value="" style="endArrow=classic;html=1;rounded=0;entryX=0;entryY=0.5;entryDx=0;entryDy=0;" edge="1" parent="1" target="2qOxODOBPzTFWC9N3JjX-87">
          <mxGeometry width="50" height="50" relative="1" as="geometry">
            <mxPoint x="440" y="480" as="sourcePoint" />
            <mxPoint x="490" y="430" as="targetPoint" />
          </mxGeometry>
        </mxCell>
        <mxCell id="2qOxODOBPzTFWC9N3JjX-110" value="" style="endArrow=none;html=1;rounded=0;entryX=0.984;entryY=-0.033;entryDx=0;entryDy=0;entryPerimeter=0;" edge="1" parent="1" target="2qOxODOBPzTFWC9N3JjX-106">
          <mxGeometry width="50" height="50" relative="1" as="geometry">
            <mxPoint x="60" y="690" as="sourcePoint" />
            <mxPoint x="110" y="640" as="targetPoint" />
          </mxGeometry>
        </mxCell>
        <mxCell id="2qOxODOBPzTFWC9N3JjX-111" value="pedido" style="shape=table;startSize=30;container=1;collapsible=1;childLayout=tableLayout;fixedRows=1;rowLines=0;fontStyle=1;align=center;resizeLast=1;" vertex="1" parent="1">
          <mxGeometry x="577.5" y="680" width="250" height="210" as="geometry" />
        </mxCell>
        <mxCell id="2qOxODOBPzTFWC9N3JjX-112" value="" style="shape=partialRectangle;collapsible=0;dropTarget=0;pointerEvents=0;fillColor=none;points=[[0,0.5],[1,0.5]];portConstraint=eastwest;top=0;left=0;right=0;bottom=1;" vertex="1" parent="2qOxODOBPzTFWC9N3JjX-111">
          <mxGeometry y="30" width="250" height="30" as="geometry" />
        </mxCell>
        <mxCell id="2qOxODOBPzTFWC9N3JjX-113" value="PK" style="shape=partialRectangle;overflow=hidden;connectable=0;fillColor=none;top=0;left=0;bottom=0;right=0;fontStyle=1;" vertex="1" parent="2qOxODOBPzTFWC9N3JjX-112">
          <mxGeometry width="30" height="30" as="geometry">
            <mxRectangle width="30" height="30" as="alternateBounds" />
          </mxGeometry>
        </mxCell>
        <mxCell id="2qOxODOBPzTFWC9N3JjX-114" value="id pedido" style="shape=partialRectangle;overflow=hidden;connectable=0;fillColor=none;top=0;left=0;bottom=0;right=0;align=left;spacingLeft=6;fontStyle=5;" vertex="1" parent="2qOxODOBPzTFWC9N3JjX-112">
          <mxGeometry x="30" width="220" height="30" as="geometry">
            <mxRectangle width="220" height="30" as="alternateBounds" />
          </mxGeometry>
        </mxCell>
        <mxCell id="2qOxODOBPzTFWC9N3JjX-115" value="" style="shape=partialRectangle;collapsible=0;dropTarget=0;pointerEvents=0;fillColor=none;points=[[0,0.5],[1,0.5]];portConstraint=eastwest;top=0;left=0;right=0;bottom=0;" vertex="1" parent="2qOxODOBPzTFWC9N3JjX-111">
          <mxGeometry y="60" width="250" height="30" as="geometry" />
        </mxCell>
        <mxCell id="2qOxODOBPzTFWC9N3JjX-116" value="" style="shape=partialRectangle;overflow=hidden;connectable=0;fillColor=none;top=0;left=0;bottom=0;right=0;" vertex="1" parent="2qOxODOBPzTFWC9N3JjX-115">
          <mxGeometry width="30" height="30" as="geometry">
            <mxRectangle width="30" height="30" as="alternateBounds" />
          </mxGeometry>
        </mxCell>
        <mxCell id="2qOxODOBPzTFWC9N3JjX-117" value="id mesa" style="shape=partialRectangle;overflow=hidden;connectable=0;fillColor=none;top=0;left=0;bottom=0;right=0;align=left;spacingLeft=6;" vertex="1" parent="2qOxODOBPzTFWC9N3JjX-115">
          <mxGeometry x="30" width="220" height="30" as="geometry">
            <mxRectangle width="220" height="30" as="alternateBounds" />
          </mxGeometry>
        </mxCell>
        <mxCell id="2qOxODOBPzTFWC9N3JjX-118" value="" style="shape=partialRectangle;collapsible=0;dropTarget=0;pointerEvents=0;fillColor=none;points=[[0,0.5],[1,0.5]];portConstraint=eastwest;top=0;left=0;right=0;bottom=0;" vertex="1" parent="2qOxODOBPzTFWC9N3JjX-111">
          <mxGeometry y="90" width="250" height="30" as="geometry" />
        </mxCell>
        <mxCell id="2qOxODOBPzTFWC9N3JjX-119" value="" style="shape=partialRectangle;overflow=hidden;connectable=0;fillColor=none;top=0;left=0;bottom=0;right=0;" vertex="1" parent="2qOxODOBPzTFWC9N3JjX-118">
          <mxGeometry width="30" height="30" as="geometry">
            <mxRectangle width="30" height="30" as="alternateBounds" />
          </mxGeometry>
        </mxCell>
        <mxCell id="2qOxODOBPzTFWC9N3JjX-120" value="id personal" style="shape=partialRectangle;overflow=hidden;connectable=0;fillColor=none;top=0;left=0;bottom=0;right=0;align=left;spacingLeft=6;" vertex="1" parent="2qOxODOBPzTFWC9N3JjX-118">
          <mxGeometry x="30" width="220" height="30" as="geometry">
            <mxRectangle width="220" height="30" as="alternateBounds" />
          </mxGeometry>
        </mxCell>
        <mxCell id="2qOxODOBPzTFWC9N3JjX-121" value="" style="shape=partialRectangle;collapsible=0;dropTarget=0;pointerEvents=0;fillColor=none;points=[[0,0.5],[1,0.5]];portConstraint=eastwest;top=0;left=0;right=0;bottom=0;" vertex="1" parent="2qOxODOBPzTFWC9N3JjX-111">
          <mxGeometry y="120" width="250" height="30" as="geometry" />
        </mxCell>
        <mxCell id="2qOxODOBPzTFWC9N3JjX-122" value="" style="shape=partialRectangle;overflow=hidden;connectable=0;fillColor=none;top=0;left=0;bottom=0;right=0;" vertex="1" parent="2qOxODOBPzTFWC9N3JjX-121">
          <mxGeometry width="30" height="30" as="geometry">
            <mxRectangle width="30" height="30" as="alternateBounds" />
          </mxGeometry>
        </mxCell>
        <mxCell id="2qOxODOBPzTFWC9N3JjX-123" value="fecha" style="shape=partialRectangle;overflow=hidden;connectable=0;fillColor=none;top=0;left=0;bottom=0;right=0;align=left;spacingLeft=6;" vertex="1" parent="2qOxODOBPzTFWC9N3JjX-121">
          <mxGeometry x="30" width="220" height="30" as="geometry">
            <mxRectangle width="220" height="30" as="alternateBounds" />
          </mxGeometry>
        </mxCell>
        <mxCell id="2qOxODOBPzTFWC9N3JjX-124" value="" style="endArrow=none;html=1;rounded=0;entryX=0.988;entryY=0.967;entryDx=0;entryDy=0;entryPerimeter=0;" edge="1" parent="2qOxODOBPzTFWC9N3JjX-111" target="2qOxODOBPzTFWC9N3JjX-121">
          <mxGeometry width="50" height="50" relative="1" as="geometry">
            <mxPoint x="-1" y="150" as="sourcePoint" />
            <mxPoint x="79" y="100" as="targetPoint" />
          </mxGeometry>
        </mxCell>
        <mxCell id="2qOxODOBPzTFWC9N3JjX-125" value="" style="shape=partialRectangle;collapsible=0;dropTarget=0;pointerEvents=0;fillColor=none;points=[[0,0.5],[1,0.5]];portConstraint=eastwest;top=0;left=0;right=0;bottom=0;" vertex="1" parent="2qOxODOBPzTFWC9N3JjX-111">
          <mxGeometry y="150" width="250" height="30" as="geometry" />
        </mxCell>
        <mxCell id="2qOxODOBPzTFWC9N3JjX-126" value="" style="shape=partialRectangle;overflow=hidden;connectable=0;fillColor=none;top=0;left=0;bottom=0;right=0;" vertex="1" parent="2qOxODOBPzTFWC9N3JjX-125">
          <mxGeometry width="30" height="30" as="geometry">
            <mxRectangle width="30" height="30" as="alternateBounds" />
          </mxGeometry>
        </mxCell>
        <mxCell id="2qOxODOBPzTFWC9N3JjX-127" value="" style="shape=partialRectangle;overflow=hidden;connectable=0;fillColor=none;top=0;left=0;bottom=0;right=0;align=left;spacingLeft=6;" vertex="1" parent="2qOxODOBPzTFWC9N3JjX-125">
          <mxGeometry x="30" width="220" height="30" as="geometry">
            <mxRectangle width="220" height="30" as="alternateBounds" />
          </mxGeometry>
        </mxCell>
        <mxCell id="2qOxODOBPzTFWC9N3JjX-128" value="" style="shape=partialRectangle;collapsible=0;dropTarget=0;pointerEvents=0;fillColor=none;points=[[0,0.5],[1,0.5]];portConstraint=eastwest;top=0;left=0;right=0;bottom=0;" vertex="1" parent="2qOxODOBPzTFWC9N3JjX-111">
          <mxGeometry y="180" width="250" height="30" as="geometry" />
        </mxCell>
        <mxCell id="2qOxODOBPzTFWC9N3JjX-129" value="" style="shape=partialRectangle;overflow=hidden;connectable=0;fillColor=none;top=0;left=0;bottom=0;right=0;" vertex="1" parent="2qOxODOBPzTFWC9N3JjX-128">
          <mxGeometry width="30" height="30" as="geometry">
            <mxRectangle width="30" height="30" as="alternateBounds" />
          </mxGeometry>
        </mxCell>
        <mxCell id="2qOxODOBPzTFWC9N3JjX-130" value="" style="shape=partialRectangle;overflow=hidden;connectable=0;fillColor=none;top=0;left=0;bottom=0;right=0;align=left;spacingLeft=6;" vertex="1" parent="2qOxODOBPzTFWC9N3JjX-128">
          <mxGeometry x="30" width="220" height="30" as="geometry">
            <mxRectangle width="220" height="30" as="alternateBounds" />
          </mxGeometry>
        </mxCell>
        <mxCell id="2qOxODOBPzTFWC9N3JjX-131" value="" style="endArrow=none;html=1;rounded=0;entryX=0.992;entryY=1;entryDx=0;entryDy=0;entryPerimeter=0;" edge="1" target="2qOxODOBPzTFWC9N3JjX-115" parent="1">
          <mxGeometry width="50" height="50" relative="1" as="geometry">
            <mxPoint x="576.5" y="770" as="sourcePoint" />
            <mxPoint x="626.5" y="720" as="targetPoint" />
          </mxGeometry>
        </mxCell>
        <mxCell id="2qOxODOBPzTFWC9N3JjX-132" value="" style="endArrow=none;html=1;rounded=0;" edge="1" parent="1">
          <mxGeometry width="50" height="50" relative="1" as="geometry">
            <mxPoint x="576.5" y="800" as="sourcePoint" />
            <mxPoint x="826.5" y="800" as="targetPoint" />
          </mxGeometry>
        </mxCell>
        <mxCell id="2qOxODOBPzTFWC9N3JjX-133" value="fk" style="text;html=1;strokeColor=none;fillColor=none;align=center;verticalAlign=middle;whiteSpace=wrap;rounded=0;" vertex="1" parent="1">
          <mxGeometry x="577.5" y="740" width="29" height="30" as="geometry" />
        </mxCell>
        <mxCell id="2qOxODOBPzTFWC9N3JjX-134" value="" style="endArrow=none;html=1;rounded=0;entryX=0.984;entryY=-0.033;entryDx=0;entryDy=0;entryPerimeter=0;" edge="1" target="2qOxODOBPzTFWC9N3JjX-128" parent="1">
          <mxGeometry width="50" height="50" relative="1" as="geometry">
            <mxPoint x="576.5" y="860" as="sourcePoint" />
            <mxPoint x="626.5" y="810" as="targetPoint" />
          </mxGeometry>
        </mxCell>
        <mxCell id="2qOxODOBPzTFWC9N3JjX-136" value="reservación" style="shape=table;startSize=30;container=1;collapsible=1;childLayout=tableLayout;fixedRows=1;rowLines=0;fontStyle=1;align=center;resizeLast=1;" vertex="1" parent="1">
          <mxGeometry x="12" y="990" width="250" height="210" as="geometry" />
        </mxCell>
        <mxCell id="2qOxODOBPzTFWC9N3JjX-137" value="" style="shape=partialRectangle;collapsible=0;dropTarget=0;pointerEvents=0;fillColor=none;points=[[0,0.5],[1,0.5]];portConstraint=eastwest;top=0;left=0;right=0;bottom=1;" vertex="1" parent="2qOxODOBPzTFWC9N3JjX-136">
          <mxGeometry y="30" width="250" height="30" as="geometry" />
        </mxCell>
        <mxCell id="2qOxODOBPzTFWC9N3JjX-138" value="PK" style="shape=partialRectangle;overflow=hidden;connectable=0;fillColor=none;top=0;left=0;bottom=0;right=0;fontStyle=1;" vertex="1" parent="2qOxODOBPzTFWC9N3JjX-137">
          <mxGeometry width="30" height="30" as="geometry">
            <mxRectangle width="30" height="30" as="alternateBounds" />
          </mxGeometry>
        </mxCell>
        <mxCell id="2qOxODOBPzTFWC9N3JjX-139" value="id reserva" style="shape=partialRectangle;overflow=hidden;connectable=0;fillColor=none;top=0;left=0;bottom=0;right=0;align=left;spacingLeft=6;fontStyle=5;" vertex="1" parent="2qOxODOBPzTFWC9N3JjX-137">
          <mxGeometry x="30" width="220" height="30" as="geometry">
            <mxRectangle width="220" height="30" as="alternateBounds" />
          </mxGeometry>
        </mxCell>
        <mxCell id="2qOxODOBPzTFWC9N3JjX-140" value="" style="shape=partialRectangle;collapsible=0;dropTarget=0;pointerEvents=0;fillColor=none;points=[[0,0.5],[1,0.5]];portConstraint=eastwest;top=0;left=0;right=0;bottom=0;" vertex="1" parent="2qOxODOBPzTFWC9N3JjX-136">
          <mxGeometry y="60" width="250" height="30" as="geometry" />
        </mxCell>
        <mxCell id="2qOxODOBPzTFWC9N3JjX-141" value="" style="shape=partialRectangle;overflow=hidden;connectable=0;fillColor=none;top=0;left=0;bottom=0;right=0;" vertex="1" parent="2qOxODOBPzTFWC9N3JjX-140">
          <mxGeometry width="30" height="30" as="geometry">
            <mxRectangle width="30" height="30" as="alternateBounds" />
          </mxGeometry>
        </mxCell>
        <mxCell id="2qOxODOBPzTFWC9N3JjX-142" value="id mesa" style="shape=partialRectangle;overflow=hidden;connectable=0;fillColor=none;top=0;left=0;bottom=0;right=0;align=left;spacingLeft=6;" vertex="1" parent="2qOxODOBPzTFWC9N3JjX-140">
          <mxGeometry x="30" width="220" height="30" as="geometry">
            <mxRectangle width="220" height="30" as="alternateBounds" />
          </mxGeometry>
        </mxCell>
        <mxCell id="2qOxODOBPzTFWC9N3JjX-143" value="" style="shape=partialRectangle;collapsible=0;dropTarget=0;pointerEvents=0;fillColor=none;points=[[0,0.5],[1,0.5]];portConstraint=eastwest;top=0;left=0;right=0;bottom=0;" vertex="1" parent="2qOxODOBPzTFWC9N3JjX-136">
          <mxGeometry y="90" width="250" height="30" as="geometry" />
        </mxCell>
        <mxCell id="2qOxODOBPzTFWC9N3JjX-144" value="" style="shape=partialRectangle;overflow=hidden;connectable=0;fillColor=none;top=0;left=0;bottom=0;right=0;" vertex="1" parent="2qOxODOBPzTFWC9N3JjX-143">
          <mxGeometry width="30" height="30" as="geometry">
            <mxRectangle width="30" height="30" as="alternateBounds" />
          </mxGeometry>
        </mxCell>
        <mxCell id="2qOxODOBPzTFWC9N3JjX-145" value="nombre cliente" style="shape=partialRectangle;overflow=hidden;connectable=0;fillColor=none;top=0;left=0;bottom=0;right=0;align=left;spacingLeft=6;" vertex="1" parent="2qOxODOBPzTFWC9N3JjX-143">
          <mxGeometry x="30" width="220" height="30" as="geometry">
            <mxRectangle width="220" height="30" as="alternateBounds" />
          </mxGeometry>
        </mxCell>
        <mxCell id="2qOxODOBPzTFWC9N3JjX-146" value="" style="shape=partialRectangle;collapsible=0;dropTarget=0;pointerEvents=0;fillColor=none;points=[[0,0.5],[1,0.5]];portConstraint=eastwest;top=0;left=0;right=0;bottom=0;" vertex="1" parent="2qOxODOBPzTFWC9N3JjX-136">
          <mxGeometry y="120" width="250" height="30" as="geometry" />
        </mxCell>
        <mxCell id="2qOxODOBPzTFWC9N3JjX-147" value="" style="shape=partialRectangle;overflow=hidden;connectable=0;fillColor=none;top=0;left=0;bottom=0;right=0;" vertex="1" parent="2qOxODOBPzTFWC9N3JjX-146">
          <mxGeometry width="30" height="30" as="geometry">
            <mxRectangle width="30" height="30" as="alternateBounds" />
          </mxGeometry>
        </mxCell>
        <mxCell id="2qOxODOBPzTFWC9N3JjX-148" value="telefono" style="shape=partialRectangle;overflow=hidden;connectable=0;fillColor=none;top=0;left=0;bottom=0;right=0;align=left;spacingLeft=6;" vertex="1" parent="2qOxODOBPzTFWC9N3JjX-146">
          <mxGeometry x="30" width="220" height="30" as="geometry">
            <mxRectangle width="220" height="30" as="alternateBounds" />
          </mxGeometry>
        </mxCell>
        <mxCell id="2qOxODOBPzTFWC9N3JjX-149" value="" style="endArrow=none;html=1;rounded=0;entryX=0.988;entryY=0.967;entryDx=0;entryDy=0;entryPerimeter=0;" edge="1" parent="2qOxODOBPzTFWC9N3JjX-136" target="2qOxODOBPzTFWC9N3JjX-146">
          <mxGeometry width="50" height="50" relative="1" as="geometry">
            <mxPoint x="-1" y="150" as="sourcePoint" />
            <mxPoint x="79" y="100" as="targetPoint" />
          </mxGeometry>
        </mxCell>
        <mxCell id="2qOxODOBPzTFWC9N3JjX-150" value="" style="shape=partialRectangle;collapsible=0;dropTarget=0;pointerEvents=0;fillColor=none;points=[[0,0.5],[1,0.5]];portConstraint=eastwest;top=0;left=0;right=0;bottom=0;" vertex="1" parent="2qOxODOBPzTFWC9N3JjX-136">
          <mxGeometry y="150" width="250" height="30" as="geometry" />
        </mxCell>
        <mxCell id="2qOxODOBPzTFWC9N3JjX-151" value="" style="shape=partialRectangle;overflow=hidden;connectable=0;fillColor=none;top=0;left=0;bottom=0;right=0;" vertex="1" parent="2qOxODOBPzTFWC9N3JjX-150">
          <mxGeometry width="30" height="30" as="geometry">
            <mxRectangle width="30" height="30" as="alternateBounds" />
          </mxGeometry>
        </mxCell>
        <mxCell id="2qOxODOBPzTFWC9N3JjX-152" value="" style="shape=partialRectangle;overflow=hidden;connectable=0;fillColor=none;top=0;left=0;bottom=0;right=0;align=left;spacingLeft=6;" vertex="1" parent="2qOxODOBPzTFWC9N3JjX-150">
          <mxGeometry x="30" width="220" height="30" as="geometry">
            <mxRectangle width="220" height="30" as="alternateBounds" />
          </mxGeometry>
        </mxCell>
        <mxCell id="2qOxODOBPzTFWC9N3JjX-153" value="" style="shape=partialRectangle;collapsible=0;dropTarget=0;pointerEvents=0;fillColor=none;points=[[0,0.5],[1,0.5]];portConstraint=eastwest;top=0;left=0;right=0;bottom=0;" vertex="1" parent="2qOxODOBPzTFWC9N3JjX-136">
          <mxGeometry y="180" width="250" height="30" as="geometry" />
        </mxCell>
        <mxCell id="2qOxODOBPzTFWC9N3JjX-154" value="" style="shape=partialRectangle;overflow=hidden;connectable=0;fillColor=none;top=0;left=0;bottom=0;right=0;" vertex="1" parent="2qOxODOBPzTFWC9N3JjX-153">
          <mxGeometry width="30" height="30" as="geometry">
            <mxRectangle width="30" height="30" as="alternateBounds" />
          </mxGeometry>
        </mxCell>
        <mxCell id="2qOxODOBPzTFWC9N3JjX-155" value="" style="shape=partialRectangle;overflow=hidden;connectable=0;fillColor=none;top=0;left=0;bottom=0;right=0;align=left;spacingLeft=6;" vertex="1" parent="2qOxODOBPzTFWC9N3JjX-153">
          <mxGeometry x="30" width="220" height="30" as="geometry">
            <mxRectangle width="220" height="30" as="alternateBounds" />
          </mxGeometry>
        </mxCell>
        <mxCell id="2qOxODOBPzTFWC9N3JjX-156" value="" style="endArrow=none;html=1;rounded=0;entryX=0.992;entryY=1;entryDx=0;entryDy=0;entryPerimeter=0;" edge="1" target="2qOxODOBPzTFWC9N3JjX-140" parent="1">
          <mxGeometry width="50" height="50" relative="1" as="geometry">
            <mxPoint x="11" y="1080" as="sourcePoint" />
            <mxPoint x="61" y="1030" as="targetPoint" />
          </mxGeometry>
        </mxCell>
        <mxCell id="2qOxODOBPzTFWC9N3JjX-157" value="" style="endArrow=none;html=1;rounded=0;" edge="1" parent="1">
          <mxGeometry width="50" height="50" relative="1" as="geometry">
            <mxPoint x="11" y="1110" as="sourcePoint" />
            <mxPoint x="261" y="1110" as="targetPoint" />
          </mxGeometry>
        </mxCell>
        <mxCell id="2qOxODOBPzTFWC9N3JjX-158" value="fk" style="text;html=1;strokeColor=none;fillColor=none;align=center;verticalAlign=middle;whiteSpace=wrap;rounded=0;" vertex="1" parent="1">
          <mxGeometry x="12" y="1050" width="29" height="30" as="geometry" />
        </mxCell>
        <mxCell id="2qOxODOBPzTFWC9N3JjX-159" value="" style="endArrow=none;html=1;rounded=0;entryX=0.984;entryY=-0.033;entryDx=0;entryDy=0;entryPerimeter=0;" edge="1" target="2qOxODOBPzTFWC9N3JjX-153" parent="1">
          <mxGeometry width="50" height="50" relative="1" as="geometry">
            <mxPoint x="11" y="1170" as="sourcePoint" />
            <mxPoint x="61" y="1120" as="targetPoint" />
          </mxGeometry>
        </mxCell>
        <mxCell id="2qOxODOBPzTFWC9N3JjX-162" value="mesa" style="shape=table;startSize=30;container=1;collapsible=1;childLayout=tableLayout;fixedRows=1;rowLines=0;fontStyle=1;align=center;resizeLast=1;" vertex="1" parent="1">
          <mxGeometry x="11" y="760" width="250" height="210" as="geometry" />
        </mxCell>
        <mxCell id="2qOxODOBPzTFWC9N3JjX-163" value="" style="shape=partialRectangle;collapsible=0;dropTarget=0;pointerEvents=0;fillColor=none;points=[[0,0.5],[1,0.5]];portConstraint=eastwest;top=0;left=0;right=0;bottom=1;" vertex="1" parent="2qOxODOBPzTFWC9N3JjX-162">
          <mxGeometry y="30" width="250" height="30" as="geometry" />
        </mxCell>
        <mxCell id="2qOxODOBPzTFWC9N3JjX-164" value="PK" style="shape=partialRectangle;overflow=hidden;connectable=0;fillColor=none;top=0;left=0;bottom=0;right=0;fontStyle=1;" vertex="1" parent="2qOxODOBPzTFWC9N3JjX-163">
          <mxGeometry width="30" height="30" as="geometry">
            <mxRectangle width="30" height="30" as="alternateBounds" />
          </mxGeometry>
        </mxCell>
        <mxCell id="2qOxODOBPzTFWC9N3JjX-165" value="id de mesa" style="shape=partialRectangle;overflow=hidden;connectable=0;fillColor=none;top=0;left=0;bottom=0;right=0;align=left;spacingLeft=6;fontStyle=5;" vertex="1" parent="2qOxODOBPzTFWC9N3JjX-163">
          <mxGeometry x="30" width="220" height="30" as="geometry">
            <mxRectangle width="220" height="30" as="alternateBounds" />
          </mxGeometry>
        </mxCell>
        <mxCell id="2qOxODOBPzTFWC9N3JjX-166" value="" style="shape=partialRectangle;collapsible=0;dropTarget=0;pointerEvents=0;fillColor=none;points=[[0,0.5],[1,0.5]];portConstraint=eastwest;top=0;left=0;right=0;bottom=0;" vertex="1" parent="2qOxODOBPzTFWC9N3JjX-162">
          <mxGeometry y="60" width="250" height="30" as="geometry" />
        </mxCell>
        <mxCell id="2qOxODOBPzTFWC9N3JjX-167" value="" style="shape=partialRectangle;overflow=hidden;connectable=0;fillColor=none;top=0;left=0;bottom=0;right=0;" vertex="1" parent="2qOxODOBPzTFWC9N3JjX-166">
          <mxGeometry width="30" height="30" as="geometry">
            <mxRectangle width="30" height="30" as="alternateBounds" />
          </mxGeometry>
        </mxCell>
        <mxCell id="2qOxODOBPzTFWC9N3JjX-168" value="id local" style="shape=partialRectangle;overflow=hidden;connectable=0;fillColor=none;top=0;left=0;bottom=0;right=0;align=left;spacingLeft=6;" vertex="1" parent="2qOxODOBPzTFWC9N3JjX-166">
          <mxGeometry x="30" width="220" height="30" as="geometry">
            <mxRectangle width="220" height="30" as="alternateBounds" />
          </mxGeometry>
        </mxCell>
        <mxCell id="2qOxODOBPzTFWC9N3JjX-169" value="" style="shape=partialRectangle;collapsible=0;dropTarget=0;pointerEvents=0;fillColor=none;points=[[0,0.5],[1,0.5]];portConstraint=eastwest;top=0;left=0;right=0;bottom=0;" vertex="1" parent="2qOxODOBPzTFWC9N3JjX-162">
          <mxGeometry y="90" width="250" height="30" as="geometry" />
        </mxCell>
        <mxCell id="2qOxODOBPzTFWC9N3JjX-170" value="" style="shape=partialRectangle;overflow=hidden;connectable=0;fillColor=none;top=0;left=0;bottom=0;right=0;" vertex="1" parent="2qOxODOBPzTFWC9N3JjX-169">
          <mxGeometry width="30" height="30" as="geometry">
            <mxRectangle width="30" height="30" as="alternateBounds" />
          </mxGeometry>
        </mxCell>
        <mxCell id="2qOxODOBPzTFWC9N3JjX-171" value="capacidad" style="shape=partialRectangle;overflow=hidden;connectable=0;fillColor=none;top=0;left=0;bottom=0;right=0;align=left;spacingLeft=6;" vertex="1" parent="2qOxODOBPzTFWC9N3JjX-169">
          <mxGeometry x="30" width="220" height="30" as="geometry">
            <mxRectangle width="220" height="30" as="alternateBounds" />
          </mxGeometry>
        </mxCell>
        <mxCell id="2qOxODOBPzTFWC9N3JjX-172" value="" style="shape=partialRectangle;collapsible=0;dropTarget=0;pointerEvents=0;fillColor=none;points=[[0,0.5],[1,0.5]];portConstraint=eastwest;top=0;left=0;right=0;bottom=0;" vertex="1" parent="2qOxODOBPzTFWC9N3JjX-162">
          <mxGeometry y="120" width="250" height="30" as="geometry" />
        </mxCell>
        <mxCell id="2qOxODOBPzTFWC9N3JjX-173" value="" style="shape=partialRectangle;overflow=hidden;connectable=0;fillColor=none;top=0;left=0;bottom=0;right=0;" vertex="1" parent="2qOxODOBPzTFWC9N3JjX-172">
          <mxGeometry width="30" height="30" as="geometry">
            <mxRectangle width="30" height="30" as="alternateBounds" />
          </mxGeometry>
        </mxCell>
        <mxCell id="2qOxODOBPzTFWC9N3JjX-174" value="" style="shape=partialRectangle;overflow=hidden;connectable=0;fillColor=none;top=0;left=0;bottom=0;right=0;align=left;spacingLeft=6;" vertex="1" parent="2qOxODOBPzTFWC9N3JjX-172">
          <mxGeometry x="30" width="220" height="30" as="geometry">
            <mxRectangle width="220" height="30" as="alternateBounds" />
          </mxGeometry>
        </mxCell>
        <mxCell id="2qOxODOBPzTFWC9N3JjX-175" value="" style="endArrow=none;html=1;rounded=0;entryX=0.988;entryY=0.967;entryDx=0;entryDy=0;entryPerimeter=0;" edge="1" parent="2qOxODOBPzTFWC9N3JjX-162" target="2qOxODOBPzTFWC9N3JjX-172">
          <mxGeometry width="50" height="50" relative="1" as="geometry">
            <mxPoint x="-1" y="150" as="sourcePoint" />
            <mxPoint x="79" y="100" as="targetPoint" />
          </mxGeometry>
        </mxCell>
        <mxCell id="2qOxODOBPzTFWC9N3JjX-176" value="" style="shape=partialRectangle;collapsible=0;dropTarget=0;pointerEvents=0;fillColor=none;points=[[0,0.5],[1,0.5]];portConstraint=eastwest;top=0;left=0;right=0;bottom=0;" vertex="1" parent="2qOxODOBPzTFWC9N3JjX-162">
          <mxGeometry y="150" width="250" height="30" as="geometry" />
        </mxCell>
        <mxCell id="2qOxODOBPzTFWC9N3JjX-177" value="" style="shape=partialRectangle;overflow=hidden;connectable=0;fillColor=none;top=0;left=0;bottom=0;right=0;" vertex="1" parent="2qOxODOBPzTFWC9N3JjX-176">
          <mxGeometry width="30" height="30" as="geometry">
            <mxRectangle width="30" height="30" as="alternateBounds" />
          </mxGeometry>
        </mxCell>
        <mxCell id="2qOxODOBPzTFWC9N3JjX-178" value="" style="shape=partialRectangle;overflow=hidden;connectable=0;fillColor=none;top=0;left=0;bottom=0;right=0;align=left;spacingLeft=6;" vertex="1" parent="2qOxODOBPzTFWC9N3JjX-176">
          <mxGeometry x="30" width="220" height="30" as="geometry">
            <mxRectangle width="220" height="30" as="alternateBounds" />
          </mxGeometry>
        </mxCell>
        <mxCell id="2qOxODOBPzTFWC9N3JjX-179" value="" style="shape=partialRectangle;collapsible=0;dropTarget=0;pointerEvents=0;fillColor=none;points=[[0,0.5],[1,0.5]];portConstraint=eastwest;top=0;left=0;right=0;bottom=0;" vertex="1" parent="2qOxODOBPzTFWC9N3JjX-162">
          <mxGeometry y="180" width="250" height="30" as="geometry" />
        </mxCell>
        <mxCell id="2qOxODOBPzTFWC9N3JjX-180" value="" style="shape=partialRectangle;overflow=hidden;connectable=0;fillColor=none;top=0;left=0;bottom=0;right=0;" vertex="1" parent="2qOxODOBPzTFWC9N3JjX-179">
          <mxGeometry width="30" height="30" as="geometry">
            <mxRectangle width="30" height="30" as="alternateBounds" />
          </mxGeometry>
        </mxCell>
        <mxCell id="2qOxODOBPzTFWC9N3JjX-181" value="" style="shape=partialRectangle;overflow=hidden;connectable=0;fillColor=none;top=0;left=0;bottom=0;right=0;align=left;spacingLeft=6;" vertex="1" parent="2qOxODOBPzTFWC9N3JjX-179">
          <mxGeometry x="30" width="220" height="30" as="geometry">
            <mxRectangle width="220" height="30" as="alternateBounds" />
          </mxGeometry>
        </mxCell>
        <mxCell id="2qOxODOBPzTFWC9N3JjX-182" value="" style="endArrow=none;html=1;rounded=0;entryX=0.992;entryY=1;entryDx=0;entryDy=0;entryPerimeter=0;" edge="1" target="2qOxODOBPzTFWC9N3JjX-166" parent="1">
          <mxGeometry width="50" height="50" relative="1" as="geometry">
            <mxPoint x="10" y="850" as="sourcePoint" />
            <mxPoint x="60" y="800" as="targetPoint" />
          </mxGeometry>
        </mxCell>
        <mxCell id="2qOxODOBPzTFWC9N3JjX-183" value="" style="endArrow=none;html=1;rounded=0;" edge="1" parent="1">
          <mxGeometry width="50" height="50" relative="1" as="geometry">
            <mxPoint x="10" y="880" as="sourcePoint" />
            <mxPoint x="260" y="880" as="targetPoint" />
            <Array as="points">
              <mxPoint x="111" y="880" />
            </Array>
          </mxGeometry>
        </mxCell>
        <mxCell id="2qOxODOBPzTFWC9N3JjX-184" value="fk" style="text;html=1;strokeColor=none;fillColor=none;align=center;verticalAlign=middle;whiteSpace=wrap;rounded=0;" vertex="1" parent="1">
          <mxGeometry x="11" y="820" width="29" height="30" as="geometry" />
        </mxCell>
        <mxCell id="2qOxODOBPzTFWC9N3JjX-185" value="" style="endArrow=none;html=1;rounded=0;entryX=0.984;entryY=-0.033;entryDx=0;entryDy=0;entryPerimeter=0;" edge="1" target="2qOxODOBPzTFWC9N3JjX-179" parent="1">
          <mxGeometry width="50" height="50" relative="1" as="geometry">
            <mxPoint x="10" y="940" as="sourcePoint" />
            <mxPoint x="60" y="890" as="targetPoint" />
          </mxGeometry>
        </mxCell>
        <mxCell id="2qOxODOBPzTFWC9N3JjX-189" value="" style="endArrow=classic;html=1;rounded=0;entryX=0;entryY=0.5;entryDx=0;entryDy=0;" edge="1" parent="1" target="2qOxODOBPzTFWC9N3JjX-184">
          <mxGeometry width="50" height="50" relative="1" as="geometry">
            <mxPoint x="440" y="480" as="sourcePoint" />
            <mxPoint x="-60" y="840" as="targetPoint" />
            <Array as="points">
              <mxPoint x="440" y="740" />
              <mxPoint x="-60" y="740" />
              <mxPoint x="-60" y="835" />
            </Array>
          </mxGeometry>
        </mxCell>
        <mxCell id="2qOxODOBPzTFWC9N3JjX-190" value="pedido menu" style="shape=table;startSize=30;container=1;collapsible=1;childLayout=tableLayout;fixedRows=1;rowLines=0;fontStyle=1;align=center;resizeLast=1;" vertex="1" parent="1">
          <mxGeometry x="581" y="910" width="250" height="150" as="geometry" />
        </mxCell>
        <mxCell id="2qOxODOBPzTFWC9N3JjX-191" value="" style="shape=partialRectangle;collapsible=0;dropTarget=0;pointerEvents=0;fillColor=none;points=[[0,0.5],[1,0.5]];portConstraint=eastwest;top=0;left=0;right=0;bottom=1;" vertex="1" parent="2qOxODOBPzTFWC9N3JjX-190">
          <mxGeometry y="30" width="250" height="30" as="geometry" />
        </mxCell>
        <mxCell id="2qOxODOBPzTFWC9N3JjX-192" value="fk" style="shape=partialRectangle;overflow=hidden;connectable=0;fillColor=none;top=0;left=0;bottom=0;right=0;fontStyle=1;" vertex="1" parent="2qOxODOBPzTFWC9N3JjX-191">
          <mxGeometry width="30" height="30" as="geometry">
            <mxRectangle width="30" height="30" as="alternateBounds" />
          </mxGeometry>
        </mxCell>
        <mxCell id="2qOxODOBPzTFWC9N3JjX-193" value="id pedido" style="shape=partialRectangle;overflow=hidden;connectable=0;fillColor=none;top=0;left=0;bottom=0;right=0;align=left;spacingLeft=6;fontStyle=5;" vertex="1" parent="2qOxODOBPzTFWC9N3JjX-191">
          <mxGeometry x="30" width="220" height="30" as="geometry">
            <mxRectangle width="220" height="30" as="alternateBounds" />
          </mxGeometry>
        </mxCell>
        <mxCell id="2qOxODOBPzTFWC9N3JjX-194" value="" style="shape=partialRectangle;collapsible=0;dropTarget=0;pointerEvents=0;fillColor=none;points=[[0,0.5],[1,0.5]];portConstraint=eastwest;top=0;left=0;right=0;bottom=0;" vertex="1" parent="2qOxODOBPzTFWC9N3JjX-190">
          <mxGeometry y="60" width="250" height="30" as="geometry" />
        </mxCell>
        <mxCell id="2qOxODOBPzTFWC9N3JjX-195" value="" style="shape=partialRectangle;overflow=hidden;connectable=0;fillColor=none;top=0;left=0;bottom=0;right=0;" vertex="1" parent="2qOxODOBPzTFWC9N3JjX-194">
          <mxGeometry width="30" height="30" as="geometry">
            <mxRectangle width="30" height="30" as="alternateBounds" />
          </mxGeometry>
        </mxCell>
        <mxCell id="2qOxODOBPzTFWC9N3JjX-196" value="id item" style="shape=partialRectangle;overflow=hidden;connectable=0;fillColor=none;top=0;left=0;bottom=0;right=0;align=left;spacingLeft=6;" vertex="1" parent="2qOxODOBPzTFWC9N3JjX-194">
          <mxGeometry x="30" width="220" height="30" as="geometry">
            <mxRectangle width="220" height="30" as="alternateBounds" />
          </mxGeometry>
        </mxCell>
        <mxCell id="2qOxODOBPzTFWC9N3JjX-197" value="" style="shape=partialRectangle;collapsible=0;dropTarget=0;pointerEvents=0;fillColor=none;points=[[0,0.5],[1,0.5]];portConstraint=eastwest;top=0;left=0;right=0;bottom=0;" vertex="1" parent="2qOxODOBPzTFWC9N3JjX-190">
          <mxGeometry y="90" width="250" height="30" as="geometry" />
        </mxCell>
        <mxCell id="2qOxODOBPzTFWC9N3JjX-198" value="" style="shape=partialRectangle;overflow=hidden;connectable=0;fillColor=none;top=0;left=0;bottom=0;right=0;" vertex="1" parent="2qOxODOBPzTFWC9N3JjX-197">
          <mxGeometry width="30" height="30" as="geometry">
            <mxRectangle width="30" height="30" as="alternateBounds" />
          </mxGeometry>
        </mxCell>
        <mxCell id="2qOxODOBPzTFWC9N3JjX-199" value="cantidad de items" style="shape=partialRectangle;overflow=hidden;connectable=0;fillColor=none;top=0;left=0;bottom=0;right=0;align=left;spacingLeft=6;" vertex="1" parent="2qOxODOBPzTFWC9N3JjX-197">
          <mxGeometry x="30" width="220" height="30" as="geometry">
            <mxRectangle width="220" height="30" as="alternateBounds" />
          </mxGeometry>
        </mxCell>
        <mxCell id="2qOxODOBPzTFWC9N3JjX-200" value="" style="shape=partialRectangle;collapsible=0;dropTarget=0;pointerEvents=0;fillColor=none;points=[[0,0.5],[1,0.5]];portConstraint=eastwest;top=0;left=0;right=0;bottom=0;" vertex="1" parent="2qOxODOBPzTFWC9N3JjX-190">
          <mxGeometry y="120" width="250" height="30" as="geometry" />
        </mxCell>
        <mxCell id="2qOxODOBPzTFWC9N3JjX-201" value="" style="shape=partialRectangle;overflow=hidden;connectable=0;fillColor=none;top=0;left=0;bottom=0;right=0;" vertex="1" parent="2qOxODOBPzTFWC9N3JjX-200">
          <mxGeometry width="30" height="30" as="geometry">
            <mxRectangle width="30" height="30" as="alternateBounds" />
          </mxGeometry>
        </mxCell>
        <mxCell id="2qOxODOBPzTFWC9N3JjX-202" value="delivery" style="shape=partialRectangle;overflow=hidden;connectable=0;fillColor=none;top=0;left=0;bottom=0;right=0;align=left;spacingLeft=6;" vertex="1" parent="2qOxODOBPzTFWC9N3JjX-200">
          <mxGeometry x="30" width="220" height="30" as="geometry">
            <mxRectangle width="220" height="30" as="alternateBounds" />
          </mxGeometry>
        </mxCell>
        <mxCell id="2qOxODOBPzTFWC9N3JjX-203" value="" style="endArrow=none;html=1;rounded=0;entryX=0.992;entryY=1;entryDx=0;entryDy=0;entryPerimeter=0;" edge="1" target="2qOxODOBPzTFWC9N3JjX-194" parent="1">
          <mxGeometry width="50" height="50" relative="1" as="geometry">
            <mxPoint x="580" y="1000" as="sourcePoint" />
            <mxPoint x="630" y="950" as="targetPoint" />
          </mxGeometry>
        </mxCell>
        <mxCell id="2qOxODOBPzTFWC9N3JjX-204" value="" style="endArrow=none;html=1;rounded=0;" edge="1" parent="1">
          <mxGeometry width="50" height="50" relative="1" as="geometry">
            <mxPoint x="580" y="1030" as="sourcePoint" />
            <mxPoint x="830" y="1030" as="targetPoint" />
          </mxGeometry>
        </mxCell>
        <mxCell id="2qOxODOBPzTFWC9N3JjX-205" value="fk" style="text;html=1;strokeColor=none;fillColor=none;align=center;verticalAlign=middle;whiteSpace=wrap;rounded=0;" vertex="1" parent="1">
          <mxGeometry x="581" y="970" width="29" height="30" as="geometry" />
        </mxCell>
        <mxCell id="2qOxODOBPzTFWC9N3JjX-206" value="" style="curved=1;endArrow=classic;html=1;rounded=0;entryX=1;entryY=0.5;entryDx=0;entryDy=0;" edge="1" parent="1" target="2qOxODOBPzTFWC9N3JjX-194">
          <mxGeometry width="50" height="50" relative="1" as="geometry">
            <mxPoint x="830" y="550" as="sourcePoint" />
            <mxPoint x="900" y="890" as="targetPoint" />
            <Array as="points">
              <mxPoint x="860" y="560" />
              <mxPoint x="880" y="610" />
              <mxPoint x="910" y="850" />
              <mxPoint x="920" y="960" />
            </Array>
          </mxGeometry>
        </mxCell>
        <mxCell id="2qOxODOBPzTFWC9N3JjX-207" value="" style="curved=1;endArrow=classic;html=1;rounded=0;entryX=1;entryY=0.5;entryDx=0;entryDy=0;" edge="1" parent="1" target="2qOxODOBPzTFWC9N3JjX-191">
          <mxGeometry width="50" height="50" relative="1" as="geometry">
            <mxPoint x="830" y="720" as="sourcePoint" />
            <mxPoint x="880" y="670" as="targetPoint" />
            <Array as="points">
              <mxPoint x="870" y="760" />
              <mxPoint x="900" y="930" />
            </Array>
          </mxGeometry>
        </mxCell>
        <mxCell id="2qOxODOBPzTFWC9N3JjX-208" value="" style="endArrow=classic;html=1;rounded=0;entryX=1;entryY=0.5;entryDx=0;entryDy=0;" edge="1" parent="1" target="2qOxODOBPzTFWC9N3JjX-140">
          <mxGeometry width="50" height="50" relative="1" as="geometry">
            <mxPoint x="260" y="810" as="sourcePoint" />
            <mxPoint x="300" y="1070" as="targetPoint" />
            <Array as="points">
              <mxPoint x="300" y="810" />
              <mxPoint x="300" y="1065" />
            </Array>
          </mxGeometry>
        </mxCell>
        <mxCell id="2qOxODOBPzTFWC9N3JjX-209" value="delivery" style="shape=table;startSize=30;container=1;collapsible=1;childLayout=tableLayout;fixedRows=1;rowLines=0;fontStyle=1;align=center;resizeLast=1;" vertex="1" parent="1">
          <mxGeometry x="582" y="1090" width="250" height="210" as="geometry" />
        </mxCell>
        <mxCell id="2qOxODOBPzTFWC9N3JjX-210" value="" style="shape=partialRectangle;collapsible=0;dropTarget=0;pointerEvents=0;fillColor=none;points=[[0,0.5],[1,0.5]];portConstraint=eastwest;top=0;left=0;right=0;bottom=1;" vertex="1" parent="2qOxODOBPzTFWC9N3JjX-209">
          <mxGeometry y="30" width="250" height="30" as="geometry" />
        </mxCell>
        <mxCell id="2qOxODOBPzTFWC9N3JjX-211" value="PK" style="shape=partialRectangle;overflow=hidden;connectable=0;fillColor=none;top=0;left=0;bottom=0;right=0;fontStyle=1;" vertex="1" parent="2qOxODOBPzTFWC9N3JjX-210">
          <mxGeometry width="30" height="30" as="geometry">
            <mxRectangle width="30" height="30" as="alternateBounds" />
          </mxGeometry>
        </mxCell>
        <mxCell id="2qOxODOBPzTFWC9N3JjX-212" value="id delivery" style="shape=partialRectangle;overflow=hidden;connectable=0;fillColor=none;top=0;left=0;bottom=0;right=0;align=left;spacingLeft=6;fontStyle=5;" vertex="1" parent="2qOxODOBPzTFWC9N3JjX-210">
          <mxGeometry x="30" width="220" height="30" as="geometry">
            <mxRectangle width="220" height="30" as="alternateBounds" />
          </mxGeometry>
        </mxCell>
        <mxCell id="2qOxODOBPzTFWC9N3JjX-213" value="" style="shape=partialRectangle;collapsible=0;dropTarget=0;pointerEvents=0;fillColor=none;points=[[0,0.5],[1,0.5]];portConstraint=eastwest;top=0;left=0;right=0;bottom=0;" vertex="1" parent="2qOxODOBPzTFWC9N3JjX-209">
          <mxGeometry y="60" width="250" height="30" as="geometry" />
        </mxCell>
        <mxCell id="2qOxODOBPzTFWC9N3JjX-214" value="" style="shape=partialRectangle;overflow=hidden;connectable=0;fillColor=none;top=0;left=0;bottom=0;right=0;" vertex="1" parent="2qOxODOBPzTFWC9N3JjX-213">
          <mxGeometry width="30" height="30" as="geometry">
            <mxRectangle width="30" height="30" as="alternateBounds" />
          </mxGeometry>
        </mxCell>
        <mxCell id="2qOxODOBPzTFWC9N3JjX-215" value="delivery" style="shape=partialRectangle;overflow=hidden;connectable=0;fillColor=none;top=0;left=0;bottom=0;right=0;align=left;spacingLeft=6;" vertex="1" parent="2qOxODOBPzTFWC9N3JjX-213">
          <mxGeometry x="30" width="220" height="30" as="geometry">
            <mxRectangle width="220" height="30" as="alternateBounds" />
          </mxGeometry>
        </mxCell>
        <mxCell id="2qOxODOBPzTFWC9N3JjX-216" value="" style="shape=partialRectangle;collapsible=0;dropTarget=0;pointerEvents=0;fillColor=none;points=[[0,0.5],[1,0.5]];portConstraint=eastwest;top=0;left=0;right=0;bottom=0;" vertex="1" parent="2qOxODOBPzTFWC9N3JjX-209">
          <mxGeometry y="90" width="250" height="30" as="geometry" />
        </mxCell>
        <mxCell id="2qOxODOBPzTFWC9N3JjX-217" value="" style="shape=partialRectangle;overflow=hidden;connectable=0;fillColor=none;top=0;left=0;bottom=0;right=0;" vertex="1" parent="2qOxODOBPzTFWC9N3JjX-216">
          <mxGeometry width="30" height="30" as="geometry">
            <mxRectangle width="30" height="30" as="alternateBounds" />
          </mxGeometry>
        </mxCell>
        <mxCell id="2qOxODOBPzTFWC9N3JjX-218" value="fecha" style="shape=partialRectangle;overflow=hidden;connectable=0;fillColor=none;top=0;left=0;bottom=0;right=0;align=left;spacingLeft=6;" vertex="1" parent="2qOxODOBPzTFWC9N3JjX-216">
          <mxGeometry x="30" width="220" height="30" as="geometry">
            <mxRectangle width="220" height="30" as="alternateBounds" />
          </mxGeometry>
        </mxCell>
        <mxCell id="2qOxODOBPzTFWC9N3JjX-219" value="" style="shape=partialRectangle;collapsible=0;dropTarget=0;pointerEvents=0;fillColor=none;points=[[0,0.5],[1,0.5]];portConstraint=eastwest;top=0;left=0;right=0;bottom=0;" vertex="1" parent="2qOxODOBPzTFWC9N3JjX-209">
          <mxGeometry y="120" width="250" height="30" as="geometry" />
        </mxCell>
        <mxCell id="2qOxODOBPzTFWC9N3JjX-220" value="" style="shape=partialRectangle;overflow=hidden;connectable=0;fillColor=none;top=0;left=0;bottom=0;right=0;" vertex="1" parent="2qOxODOBPzTFWC9N3JjX-219">
          <mxGeometry width="30" height="30" as="geometry">
            <mxRectangle width="30" height="30" as="alternateBounds" />
          </mxGeometry>
        </mxCell>
        <mxCell id="2qOxODOBPzTFWC9N3JjX-221" value="destino" style="shape=partialRectangle;overflow=hidden;connectable=0;fillColor=none;top=0;left=0;bottom=0;right=0;align=left;spacingLeft=6;" vertex="1" parent="2qOxODOBPzTFWC9N3JjX-219">
          <mxGeometry x="30" width="220" height="30" as="geometry">
            <mxRectangle width="220" height="30" as="alternateBounds" />
          </mxGeometry>
        </mxCell>
        <mxCell id="2qOxODOBPzTFWC9N3JjX-222" value="" style="endArrow=none;html=1;rounded=0;entryX=0.988;entryY=0.967;entryDx=0;entryDy=0;entryPerimeter=0;" edge="1" parent="2qOxODOBPzTFWC9N3JjX-209" target="2qOxODOBPzTFWC9N3JjX-219">
          <mxGeometry width="50" height="50" relative="1" as="geometry">
            <mxPoint x="-1" y="150" as="sourcePoint" />
            <mxPoint x="79" y="100" as="targetPoint" />
          </mxGeometry>
        </mxCell>
        <mxCell id="2qOxODOBPzTFWC9N3JjX-223" value="" style="shape=partialRectangle;collapsible=0;dropTarget=0;pointerEvents=0;fillColor=none;points=[[0,0.5],[1,0.5]];portConstraint=eastwest;top=0;left=0;right=0;bottom=0;" vertex="1" parent="2qOxODOBPzTFWC9N3JjX-209">
          <mxGeometry y="150" width="250" height="30" as="geometry" />
        </mxCell>
        <mxCell id="2qOxODOBPzTFWC9N3JjX-224" value="" style="shape=partialRectangle;overflow=hidden;connectable=0;fillColor=none;top=0;left=0;bottom=0;right=0;" vertex="1" parent="2qOxODOBPzTFWC9N3JjX-223">
          <mxGeometry width="30" height="30" as="geometry">
            <mxRectangle width="30" height="30" as="alternateBounds" />
          </mxGeometry>
        </mxCell>
        <mxCell id="2qOxODOBPzTFWC9N3JjX-225" value="n de cliente" style="shape=partialRectangle;overflow=hidden;connectable=0;fillColor=none;top=0;left=0;bottom=0;right=0;align=left;spacingLeft=6;" vertex="1" parent="2qOxODOBPzTFWC9N3JjX-223">
          <mxGeometry x="30" width="220" height="30" as="geometry">
            <mxRectangle width="220" height="30" as="alternateBounds" />
          </mxGeometry>
        </mxCell>
        <mxCell id="2qOxODOBPzTFWC9N3JjX-226" value="" style="shape=partialRectangle;collapsible=0;dropTarget=0;pointerEvents=0;fillColor=none;points=[[0,0.5],[1,0.5]];portConstraint=eastwest;top=0;left=0;right=0;bottom=0;" vertex="1" parent="2qOxODOBPzTFWC9N3JjX-209">
          <mxGeometry y="180" width="250" height="30" as="geometry" />
        </mxCell>
        <mxCell id="2qOxODOBPzTFWC9N3JjX-227" value="" style="shape=partialRectangle;overflow=hidden;connectable=0;fillColor=none;top=0;left=0;bottom=0;right=0;" vertex="1" parent="2qOxODOBPzTFWC9N3JjX-226">
          <mxGeometry width="30" height="30" as="geometry">
            <mxRectangle width="30" height="30" as="alternateBounds" />
          </mxGeometry>
        </mxCell>
        <mxCell id="2qOxODOBPzTFWC9N3JjX-228" value="" style="shape=partialRectangle;overflow=hidden;connectable=0;fillColor=none;top=0;left=0;bottom=0;right=0;align=left;spacingLeft=6;" vertex="1" parent="2qOxODOBPzTFWC9N3JjX-226">
          <mxGeometry x="30" width="220" height="30" as="geometry">
            <mxRectangle width="220" height="30" as="alternateBounds" />
          </mxGeometry>
        </mxCell>
        <mxCell id="2qOxODOBPzTFWC9N3JjX-229" value="" style="endArrow=none;html=1;rounded=0;entryX=0.992;entryY=1;entryDx=0;entryDy=0;entryPerimeter=0;" edge="1" target="2qOxODOBPzTFWC9N3JjX-213" parent="1">
          <mxGeometry width="50" height="50" relative="1" as="geometry">
            <mxPoint x="581" y="1180" as="sourcePoint" />
            <mxPoint x="631" y="1130" as="targetPoint" />
          </mxGeometry>
        </mxCell>
        <mxCell id="2qOxODOBPzTFWC9N3JjX-230" value="" style="endArrow=none;html=1;rounded=0;" edge="1" parent="1">
          <mxGeometry width="50" height="50" relative="1" as="geometry">
            <mxPoint x="581" y="1210" as="sourcePoint" />
            <mxPoint x="831" y="1210" as="targetPoint" />
          </mxGeometry>
        </mxCell>
        <mxCell id="2qOxODOBPzTFWC9N3JjX-231" value="fk" style="text;html=1;strokeColor=none;fillColor=none;align=center;verticalAlign=middle;whiteSpace=wrap;rounded=0;" vertex="1" parent="1">
          <mxGeometry x="582" y="1150" width="29" height="30" as="geometry" />
        </mxCell>
        <mxCell id="2qOxODOBPzTFWC9N3JjX-232" value="" style="endArrow=none;html=1;rounded=0;entryX=0.984;entryY=-0.033;entryDx=0;entryDy=0;entryPerimeter=0;" edge="1" target="2qOxODOBPzTFWC9N3JjX-226" parent="1">
          <mxGeometry width="50" height="50" relative="1" as="geometry">
            <mxPoint x="581" y="1270" as="sourcePoint" />
            <mxPoint x="631" y="1220" as="targetPoint" />
          </mxGeometry>
        </mxCell>
        <mxCell id="2qOxODOBPzTFWC9N3JjX-233" value="" style="endArrow=classic;html=1;rounded=0;entryX=0;entryY=0.5;entryDx=0;entryDy=0;" edge="1" parent="1" target="2qOxODOBPzTFWC9N3JjX-133">
          <mxGeometry width="50" height="50" relative="1" as="geometry">
            <mxPoint x="300" y="810" as="sourcePoint" />
            <mxPoint x="350" y="760" as="targetPoint" />
          </mxGeometry>
        </mxCell>
        <mxCell id="2qOxODOBPzTFWC9N3JjX-234" value="" style="endArrow=classic;html=1;rounded=0;entryX=0;entryY=0.5;entryDx=0;entryDy=0;" edge="1" parent="1" target="2qOxODOBPzTFWC9N3JjX-231">
          <mxGeometry width="50" height="50" relative="1" as="geometry">
            <mxPoint x="580" y="1050" as="sourcePoint" />
            <mxPoint x="560" y="1170" as="targetPoint" />
            <Array as="points">
              <mxPoint x="560" y="1050" />
              <mxPoint x="560" y="1165" />
            </Array>
          </mxGeometry>
        </mxCell>
      </root>
    </mxGraphModel>
  </diagram>
</mxfile>
